<svg width="324" height="324" viewBox="0 0 324 324" fill="none" xmlns="http://www.w3.org/2000/svg">
<g clip-path="url(#clip0)">
<g clip-path="url(#clip1)">
<rect x="3.47157" y="2.31464" width="320.529" height="321.686" rx="160.264" fill="#C7CDD4"/>
<path d="M263.172 325.557V276.541C263.172 262.881 257.832 249.781 248.328 240.123C238.824 230.464 225.934 225.038 212.493 225.038H111.135C97.694 225.038 84.8036 230.464 75.2995 240.123C65.7953 249.781 60.456 262.881 60.456 276.541V325.557" fill="#F8F9FA"/>
<path d="M162.163 205.533C190.152 205.533 212.842 182.475 212.842 154.031C212.842 125.587 190.152 102.528 162.163 102.528C134.174 102.528 111.484 125.587 111.484 154.031C111.484 182.475 134.174 205.533 162.163 205.533Z" fill="#F8F9FA"/>
</g>
<g clip-path="url(#clip2)">
<g clip-path="url(#clip3)">
<rect x="3.47157" y="2.31464" width="320.529" height="321.686" rx="160.264" fill="#C7CDD4"/>
<path d="M263.172 325.557V276.541C263.172 262.881 257.832 249.781 248.328 240.123C238.824 230.464 225.934 225.038 212.493 225.038H111.135C97.694 225.038 84.8036 230.464 75.2995 240.123C65.7953 249.781 60.456 262.881 60.456 276.541V325.557" fill="#E9ECEF"/>
<path d="M162.163 205.533C190.152 205.533 212.842 182.475 212.842 154.031C212.842 125.587 190.152 102.528 162.163 102.528C134.174 102.528 111.484 125.587 111.484 154.031C111.484 182.475 134.174 205.533 162.163 205.533Z" fill="#E9ECEF"/>
</g>
</g>
</g>
<defs>
<clipPath id="clip0">
<rect width="324" height="324" rx="32" fill="white"/>
</clipPath>
<clipPath id="clip1">
<rect x="3.47157" y="2.31464" width="320.529" height="321.686" rx="160.264" fill="white"/>
</clipPath>
<clipPath id="clip2">
<rect width="324" height="324" rx="32" fill="white"/>
</clipPath>
<clipPath id="clip3">
<rect x="3.47157" y="2.31464" width="320.529" height="321.686" rx="160.264" fill="white"/>
</clipPath>
</defs>
</svg>
